<svg xmlns="http://www.w3.org/2000/svg" viewBox="0 0 198.92 204.09"><defs><style>.a{fill:#010101;}</style></defs><title>black-seva-logo</title><path class="a" d="M196.44,103a11.12,11.12,0,0,1-2-1.89l-1.21-1.66a33.06,33.06,0,0,0-2.13-2.58,39.37,39.37,0,0,0-5-4.46,39.82,39.82,0,0,0-5.68-3.56,45,45,0,0,0-6.17-2.7,59.91,59.91,0,0,0-13.21-3.05,55.67,55.67,0,0,0-13.56,0,34,34,0,0,0-6.48,1.48,17.28,17.28,0,0,0-3,1.33l-1.49.77-.75.38-.7.46a45.28,45.28,0,0,0-10.37,8.72,73.64,73.64,0,0,0-8.16,11.11,81.62,81.62,0,0,0-6.16,12.43h0l-.11.39-.43.21c-3.75,1.86-7.47,3.79-11.17,5.76s-7.39,4-11,6.11h0L89,127.74c1.1,1.51,2.33,3.13,3.54,4.65s2.47,3.06,3.79,4.48a42.54,42.54,0,0,0,4.1,4,17.93,17.93,0,0,0,4.5,3h0l1,.36.19,1c1,5.27,2.28,10.57,3.71,15.76a138.33,138.33,0,0,0,5.12,15.25c.52,1.22,1.05,2.44,1.61,3.63l.89,1.76a18.7,18.7,0,0,0,.93,1.72l1,1.68,1.09,1.79,2.08,3.55a52,52,0,0,0,4.38,6.48,48.24,48.24,0,0,0,5.4,5.61,92.63,92.63,0,0,0,12.91,9.32l1.72,1,.92.55c.26.16.48.29.77.44a32.41,32.41,0,0,0,3.44,1.58,48.68,48.68,0,0,0,7.46,2.25c10.25,2.31,21.06,1.92,31.55.22l-.23,0c2.27-.64,4.71-1.5,7-2.38s4.66-1.88,7-2.92a128.72,128.72,0,0,0,13.35-7A122.26,122.26,0,0,0,230.55,197,107.35,107.35,0,0,0,241.71,187l1.31-1.34,1.25-1.4c.82-.94,1.68-1.85,2.47-2.82,1.56-2,3.16-3.88,4.57-5.94s2.78-4.14,4.14-6.24c.66-1.06,1.23-2.17,1.85-3.25s1.24-2.17,1.75-3.31a99.48,99.48,0,0,0,9.16-28.41l.54-3.72.27-1.86c.08-.62.11-1.25.17-1.87l.31-3.75c0-.62.11-1.26.14-1.87l0-1.79a43.75,43.75,0,0,0-.65-7.16,38.81,38.81,0,0,0-1.92-6.91,33.17,33.17,0,0,0-7.61-11.9,35.85,35.85,0,0,0-11.86-7.82,50.78,50.78,0,0,0-14.05-3.73,33,33,0,0,0-14.07,1.44,33.65,33.65,0,0,0-12.18,7.46,50.75,50.75,0,0,0-5,5.42c-.79,1-1.54,2-2.28,3l-1.12,1.54-.56.78a3.83,3.83,0,0,1-.82.9A4,4,0,0,1,196.44,103Zm.11-3a.71.71,0,0,0-.54-.24c-.17,0-.34.15-.3.09l.48-.84,1-1.69c.68-1.12,1.38-2.23,2.14-3.32a49.24,49.24,0,0,1,5-6.26,39.37,39.37,0,0,1,6.17-5.33,35.57,35.57,0,0,1,7.31-3.86,36.67,36.67,0,0,1,16.31-2.11,53.72,53.72,0,0,1,8,1.41,57.16,57.16,0,0,1,7.65,2.59,41.48,41.48,0,0,1,13.72,9,38.85,38.85,0,0,1,8.92,13.85,44.51,44.51,0,0,1,2.23,7.92,49.44,49.44,0,0,1,.76,8.17l0,2.06c0,.67-.1,1.32-.14,2l-.31,3.94c-.06.66-.09,1.31-.17,2l-.28,2-.55,3.91a104,104,0,0,1-9.74,30c-.55,1.2-1.21,2.35-1.86,3.5s-1.27,2.32-2,3.44c-1.44,2.22-2.8,4.49-4.4,6.6s-3.19,4.21-4.85,6.27c-.84,1-1.75,2-2.62,3l-1.32,1.48-1.39,1.41A107.77,107.77,0,0,1,234,201.43a127.81,127.81,0,0,1-13,8.89,134.15,134.15,0,0,1-14,7.24q-3.6,1.6-7.28,3c-2.49.92-4.91,1.76-7.59,2.5l-.11,0-.12,0c-11,1.71-22.45,2.08-33.55-.5a53.64,53.64,0,0,1-8.19-2.53,37.21,37.21,0,0,1-4-1.87c-.32-.17-.69-.39-1-.59l-.84-.5L142.6,216a97.36,97.36,0,0,1-13.54-9.93,53,53,0,0,1-5.9-6.22,54.69,54.69,0,0,1-4.73-7.11l-2-3.55-1-1.72-1.06-1.87c-.37-.62-.69-1.25-1-1.89l-.93-1.91c-.57-1.29-1.12-2.58-1.65-3.88A122.71,122.71,0,0,1,105.93,162c-.66-2.68-1.22-5.38-1.72-8.1s-1-5.41-1.31-8.19l1.2,1.33h0a17.34,17.34,0,0,1-6.31-2.54,37.77,37.77,0,0,1-5.17-3.9,59.54,59.54,0,0,1-4.53-4.46A57.22,57.22,0,0,1,84,131.26l-2.28-3.12,3.53-1.41h0c4-1.18,8-2.52,12-3.89s7.91-2.76,11.83-4.24l-.54.6h0A75.35,75.35,0,0,1,114.2,106a68.77,68.77,0,0,1,8.05-11.94,48.63,48.63,0,0,1,10.84-9.76l.77-.52.81-.44,1.63-.88c.55-.29,1.07-.6,1.65-.86s1.18-.52,1.77-.72A37.89,37.89,0,0,1,147,79.09a59.48,59.48,0,0,1,28.85,3,44.4,44.4,0,0,1,12.81,7.23A34.35,34.35,0,0,1,196,97.56l.5.78c.21.32.22.38.22.51S196.56,99.46,196.56,100Z" transform="translate(-76.5 -76.28)"/><path class="a" d="M122.5,127.5a25.87,25.87,0,0,0,3.67,3.81,47.39,47.39,0,0,0,4.14,3.25,62.64,62.64,0,0,0,9.14,5.19,87.82,87.82,0,0,0,9.83,3.85l5.08,1.54c1.71.45,3.44.86,5.15,1.35-1.77-.2-3.52-.49-5.29-.74s-3.5-.71-5.23-1.17l-2.58-.75-1.29-.39-1.26-.46-2.52-.93L138.87,141a46.78,46.78,0,0,1-9.23-5.53c-.69-.58-1.4-1.13-2.06-1.74s-1.31-1.23-1.91-1.9A20.82,20.82,0,0,1,122.5,127.5Z" transform="translate(-76.5 -76.28)"/><path class="a" d="M123.5,136.5a14.86,14.86,0,0,1,8.27-8.62,13,13,0,0,1,1.52-.53c.52-.13,1-.25,1.58-.36s1.07-.11,1.61-.16a7.68,7.68,0,0,1,1.61,0l1.61.12c.53.07,1,.21,1.56.32a14.21,14.21,0,0,1,1.54.39l1.47.55a14,14,0,0,1,5.54,3.48,11.39,11.39,0,0,1,2.89,6,17,17,0,0,1-.24,6.19,23.62,23.62,0,0,1-2,5.6c0-3.91,0-7.78-1.07-11a9.36,9.36,0,0,0-2.46-4,12.53,12.53,0,0,0-4.23-2.44,16.21,16.21,0,0,0-10-1.13A18.94,18.94,0,0,0,123.5,136.5Z" transform="translate(-76.5 -76.28)"/><path class="a" d="M197.75,100.68a8.58,8.58,0,0,1,.47.93c.14.29.23.56.35.83.22.55.42,1.1.61,1.65.38,1.1.7,2.2,1,3.29q.91,3.3,1.65,6.62c1,4.42,1.83,8.86,2.56,13.31s1.38,8.91,2,13.37,1,8.93,2.28,13.19c2.42,8.51,7.32,16.54,14.6,21.78a29,29,0,0,0,12.23,5.21,26,26,0,0,0,13.25-1.28,26.09,26.09,0,0,1-13.28,1.48,29.93,29.93,0,0,1-12.48-5c-7.51-5.15-12.71-13.21-15.39-21.86a49.15,49.15,0,0,1-1.58-6.63l-1.08-6.66c-.74-4.43-1.54-8.84-2.43-13.24s-1.87-8.77-3-13.08c-.55-2.16-1.2-4.29-1.88-6.4-.36-1-.72-2.09-1.12-3.1-.2-.51-.41-1-.63-1.49-.11-.23-.22-.49-.34-.7s-.26-.49-.31-.56l0,0a1.5,1.5,0,1,1,2.48-1.69Z" transform="translate(-76.5 -76.28)"/><path class="a" d="M172.5,162.5c-2.88,3.69-5.64,7.28-8.23,10.93a114.53,114.53,0,0,0-7.05,11.11,55.43,55.43,0,0,0-4.86,11.55,35.72,35.72,0,0,0-1.09,5.89,30.79,30.79,0,0,0,.16,5.85l0,.45a1.22,1.22,0,0,0,0,.16l0,.28c0,.19.06.39.09.59a11.41,11.41,0,0,0,.29,1.17,8.3,8.3,0,0,0,.91,2,5.37,5.37,0,0,0,3.06,2.33,11.76,11.76,0,0,0,5.06.09,31.12,31.12,0,0,0,5.8-1.65c1-.4,1.94-.75,2.95-1.22l2.93-1.34a43.35,43.35,0,0,0,5.48-3.2,41.83,41.83,0,0,0,5-4.06,39.8,39.8,0,0,0,4.38-5,30.73,30.73,0,0,1-7.15,11.66,38.38,38.38,0,0,1-5.31,4.62l-.74.52-.74.47-1.41.93c-.93.62-2,1.23-3,1.8a32.48,32.48,0,0,1-6.73,2.84,22.5,22.5,0,0,1-3.87.75,16.47,16.47,0,0,1-4.28-.21,12.36,12.36,0,0,1-7.73-4.95,15.59,15.59,0,0,1-2.07-3.9,19.23,19.23,0,0,1-.6-2c-.08-.35-.15-.69-.21-1.05l-.08-.55c0-.21,0-.34-.07-.67l0,.45a32.93,32.93,0,0,1-.42-7.77,36,36,0,0,1,1.37-7.53,44.1,44.1,0,0,1,6.58-13.18,58.07,58.07,0,0,1,9.67-10.47A52.34,52.34,0,0,1,172.5,162.5Z" transform="translate(-76.5 -76.28)"/><path class="a" d="M173.43,212.32c.24.08.66.26,1,.36s.77.21,1.14.32l1.17.23c.39.07.8.06,1.19.12a17.69,17.69,0,0,0,4.81-.29,17.45,17.45,0,0,0,2.4-.58,20.58,20.58,0,0,0,2.38-.8c.77-.35,1.58-.63,2.35-1l2.3-1.2a23.7,23.7,0,0,0,2.25-1.35c.73-.49,1.52-.89,2.24-1.41l2.16-1.59a24.75,24.75,0,0,0,2.17-1.61c1.36-1.18,2.87-2.24,4.24-3.45s2.77-2.42,4.25-3.58c-.94,1.61-2,3.16-3,4.72a24.76,24.76,0,0,1-1.7,2.23q-.88,1.1-1.8,2.18a56,56,0,0,1-4,4.05c-.7.65-1.47,1.23-2.21,1.83a22,22,0,0,1-2.33,1.71L192,214.77c-.87.46-1.78.86-2.68,1.27a19,19,0,0,1-2.84,1,17.11,17.11,0,0,1-3,.63l-.76.11c-.26,0-.52,0-.77,0l-1.55,0a12.28,12.28,0,0,1-1.55-.14,10,10,0,0,1-1.54-.25c-.51-.12-1-.24-1.51-.41s-1-.36-1.46-.57-.94-.46-1.39-.77a9.56,9.56,0,0,1-1.36-1,1.47,1.47,0,0,1,1.45-2.49Z" transform="translate(-76.5 -76.28)"/><path class="a" d="M139.75,209.67a1,1,0,0,1,.6.46l.39.58.76,1.17c.5.78,1,1.57,1.46,2.36,1,1.58,1.84,3.21,2.72,4.84,1.73,3.28,3.3,6.64,4.78,10.07.7,1.73,1.4,3.47,2.06,5.24.35.88.6,1.79.92,2.68s.59,1.81.86,2.73a49,49,0,0,1,2.11,11.58,27,27,0,0,1-2.22,12.41c-.52,1-1,2-1.59,2.91s-1.31,1.79-2,2.67-1.55,1.57-2.35,2.32-1.72,1.32-2.58,2a20.73,20.73,0,0,1-2.72,1.65l-1.39.76c-.47.24-.95.41-1.42.61-1,.38-1.9.79-2.86,1.14l-2.9.81c-.48.13-1,.27-1.45.39l-1.45.26-2.9.52c-1.93.26-3.85.38-5.77.55l-.23,0h-.11a29.84,29.84,0,0,1-15.38-4.95,24.3,24.3,0,0,1-9.54-12.76c-.19-.63-.39-1.26-.56-1.89l-.38-1.94-.18-1-.1-.91-.2-1.83a19.67,19.67,0,0,1,.52-7.83,11,11,0,0,1,5-6.24c.59-.29,1.17-.6,1.76-.85s1.2-.42,1.82-.62a7.19,7.19,0,0,1,4.07.3c.31.11.61.26.92.4a4.88,4.88,0,0,1,.81.6,4.86,4.86,0,0,0,.77.63c.24.24.49.46.71.72a5.88,5.88,0,0,1,1.31,3.81,4.78,4.78,0,0,1-.05,1,6.76,6.76,0,0,1-.14,1,12.19,12.19,0,0,1-.57,1.88,12,12,0,0,1-.85,1.81,7.23,7.23,0,0,1-1.38,1.64,8.65,8.65,0,0,1-3.72,1.84,18.68,18.68,0,0,1-3.82.49c-.63,0-1.23,0-1.92,0a18.18,18.18,0,0,1-1.94-.31,27,27,0,0,1-3.6-1.06,30.68,30.68,0,0,1-6.61-3.39,30,30,0,0,1-2.92-2.28,28,28,0,0,1-2.63-2.58c-.84-.9-1.54-1.91-2.31-2.85s-1.33-2-1.94-3.1S78.3,238,77.8,236.88s-.87-2.26-1.3-3.38a38.92,38.92,0,0,0,8.16,11.62,31.8,31.8,0,0,0,2.67,2.28,28.25,28.25,0,0,0,2.88,2,31.37,31.37,0,0,0,6.33,2.87,25.29,25.29,0,0,0,3.34.83c.54.1,1.16.18,1.62.22s1.11,0,1.68-.06c2.28-.14,4.52-.6,6-1.85a6.73,6.73,0,0,0,1-1.06c.28-.39.55-.9.83-1.38a9.34,9.34,0,0,0,1.14-3,4,4,0,0,0-.55-3c-.15-.21-.33-.41-.5-.62a2.41,2.41,0,0,0-.65-.47,4.65,4.65,0,0,1-.77-.27c-.26-.08-.51-.18-.77-.24a5.55,5.55,0,0,0-3,0l-1.53.7c-.49.27-.94.58-1.41.86a8.08,8.08,0,0,0-3.29,5.11,16.43,16.43,0,0,0,.35,6.48l.39,1.72.2.87.26.78.5,1.55L102,261a19,19,0,0,0,8.48,9,21.94,21.94,0,0,0,5.88,2.09,24.33,24.33,0,0,0,6.18.54l-.34,0c1.69-.31,3.39-.56,5.06-.87l2.45-.6,1.22-.3c.4-.12.78-.27,1.16-.4l2.32-.8c.74-.31,1.45-.66,2.17-1,.36-.17.74-.31,1.07-.5l1-.6a13.08,13.08,0,0,0,1.9-1.25,18.71,18.71,0,0,0,5.61-6.5,25.27,25.27,0,0,0,2.64-8.72,39.5,39.5,0,0,0-.09-10.1,44.39,44.39,0,0,0-1-5.16c-.22-.85-.42-1.71-.67-2.56l-.81-2.53a82.06,82.06,0,0,0-4.09-9.88c-.79-1.61-1.61-3.2-2.45-4.78-.41-.79-.85-1.58-1.29-2.36l-.67-1.16-.34-.57a.88.88,0,0,1-.14-.69l0-.22a2,2,0,0,1,2.32-1.47Z" transform="translate(-76.5 -76.28)"/></svg>