<svg id="Layer_1" data-name="Layer 1" xmlns="http://www.w3.org/2000/svg" viewBox="0 0 350 350"><defs><style>.cls-1{fill:#f37124;}.cls-2{fill:#ffd528;}.cls-3{fill:#cc1e4f;}.cls-4{fill:#168c83;}</style></defs><title>Artboard 1</title><path class="cls-1" d="M124.5,127.5a41.42,41.42,0,0,0,4.17,3.3c1.4,1,2.87,1.93,4.32,2.85,2.93,1.78,6,3.36,9,4.84.78.35,1.55.73,2.33,1.1s1.59.67,2.38,1l1.19.53,1.21.47,2.42,1c1.63.64,3.28,1.22,4.92,1.92s3.34,1.22,5,2c-1.81.08-3.62,0-5.44-.1s-3.6-.43-5.38-.78L148,145l-1.32-.34-1.3-.43c-.87-.29-1.73-.58-2.59-.89s-1.69-.71-2.53-1.08a37.7,37.7,0,0,1-9.32-5.88,28.12,28.12,0,0,1-3.8-4A16.32,16.32,0,0,1,124.5,127.5Z"/><path class="cls-1" d="M125.5,136.5a14.86,14.86,0,0,1,8.27-8.62,13,13,0,0,1,1.52-.53c.52-.13,1-.25,1.58-.36s1.07-.11,1.61-.16a7.68,7.68,0,0,1,1.61,0l1.61.12c.53.07,1,.21,1.56.32a14.21,14.21,0,0,1,1.54.39l1.47.55a14,14,0,0,1,5.54,3.48,11.39,11.39,0,0,1,2.89,6,17,17,0,0,1-.24,6.19,23.62,23.62,0,0,1-2,5.6c0-3.91,0-7.78-1.07-11a9.36,9.36,0,0,0-2.46-4,12.53,12.53,0,0,0-4.23-2.44,16.21,16.21,0,0,0-10-1.13A18.94,18.94,0,0,0,125.5,136.5Z"/><path class="cls-2" d="M171.39,212.24c.34,0,.83.09,1.26.11s.89,0,1.31.08h1.29c.42,0,.86-.06,1.27-.07a9.62,9.62,0,0,0,1.25-.12c.42-.07.82-.08,1.23-.15.83-.22,1.63-.24,2.44-.51a45.53,45.53,0,0,0,4.85-1.48c.81-.31,1.61-.65,2.45-.93s1.61-.78,2.43-1.15a21.41,21.41,0,0,0,2.43-1.26l2.45-1.32c1.57-1,3.24-1.94,4.86-3,.79-.55,1.62-1.07,2.43-1.61s1.7-1,2.5-1.6c1.64-1.12,3.33-2.22,5.17-3.24a57.26,57.26,0,0,1-2.93,5.44,55.07,55.07,0,0,1-3.67,5,24.73,24.73,0,0,1-2.11,2.29c-.72.75-1.48,1.47-2.23,2.21s-1.65,1.32-2.48,2a22.35,22.35,0,0,1-2.62,1.84,26.32,26.32,0,0,1-12.46,4.45,9,9,0,0,1-1.73,0c-.58,0-1.16,0-1.74-.08s-1.16-.18-1.73-.29a9.59,9.59,0,0,1-1.7-.43,15,15,0,0,1-3.21-1.42,14.16,14.16,0,0,1-1.44-1,10.75,10.75,0,0,1-1.33-1.33,1.46,1.46,0,0,1,1.09-2.4Z"/><path class="cls-3" d="M195.5,103.14c-4.35-7.3-11.68-12.34-19.85-15.18a57,57,0,0,0-25.78-2.63,34.56,34.56,0,0,0-6,1.4c-.48.15-.91.34-1.35.51s-.93.46-1.39.68l-1.41.7L139,89l-.68.42a46,46,0,0,0-10.2,8,64.07,64.07,0,0,0-8.22,10.68c-1.22,1.92-2.31,3.93-3.37,5.95s-2,4.15-2.79,6.17h0l-.33,1-.95.45L89.75,132.38h0l1.3-4.7c1.06,1.54,2.3,3.14,3.53,4.65s2.54,3,3.89,4.37a36.48,36.48,0,0,0,4.22,3.8,14.61,14.61,0,0,0,4.44,2.47h0l1.71.67.23,1.46A180.17,180.17,0,0,0,113,163.26c.84,3,1.69,6,2.72,8.84.48,1.47,1.07,2.87,1.6,4.31s1.15,2.83,1.85,4.16l1,2,1.11,1.94c.34.62.8,1.35,1.21,2l1.19,2.08a60,60,0,0,0,4.88,7.66,59.6,59.6,0,0,0,13.38,12.13h0a2.41,2.41,0,0,1-2.75,4,64.34,64.34,0,0,1-14.52-13.08,64.79,64.79,0,0,1-5.31-8.21l-1.17-2c-.4-.66-.78-1.26-1.2-2L115.74,185l-1.1-2.2c-.77-1.46-1.33-3-2-4.45s-1.2-3-1.71-4.53c-1.1-3-2-6.1-2.88-9.18a184.86,184.86,0,0,1-4.11-18.72l1.94,2.13h0a19.45,19.45,0,0,1-6.37-3.08,41.91,41.91,0,0,1-5-4.14q-2.34-2.2-4.44-4.57c-1.41-1.59-2.74-3.16-4.07-4.91l-2.45-3.21,3.75-1.48h0l23.33-9.24-1.28,1.41h0a80.77,80.77,0,0,1,5.63-13.5,77.89,77.89,0,0,1,8-12.38,47.77,47.77,0,0,1,11-10.43l.79-.56.85-.48,1.71-1c.59-.31,1.11-.65,1.75-.93s1.29-.57,1.93-.79a37.73,37.73,0,0,1,7.67-1.87,61.64,61.64,0,0,1,29.83,3.33,46.72,46.72,0,0,1,6.93,3.23,42.16,42.16,0,0,1,6.38,4.35,41.36,41.36,0,0,1,5.49,5.51,37.56,37.56,0,0,1,4.23,6.54,3.42,3.42,0,0,1-6,3.32Z"/><path class="cls-4" d="M195.58,99.61a85.44,85.44,0,0,1,5.08-7.85,50.12,50.12,0,0,1,6.53-7.26,39.29,39.29,0,0,1,8.22-5.76A36.48,36.48,0,0,1,225,75.39a44.62,44.62,0,0,1,19.81.95c1.56.45,3.13.87,4.64,1.43s3,1.08,4.53,1.74a51.64,51.64,0,0,1,8.67,4.75,35.28,35.28,0,0,1,7.64,7,25.48,25.48,0,0,1,3,4.58,24.69,24.69,0,0,1,1.1,2.58c.15.45.31.89.43,1.35l.19.68.14.59a84.22,84.22,0,0,1,2.18,18.93,105.51,105.51,0,0,1-6.64,36.9,97,97,0,0,1-8.28,16.9c-1.62,2.68-3.48,5.28-5.3,7.74s-3.64,4.86-5.58,7.27a94.57,94.57,0,0,1-13,13.47,87.19,87.19,0,0,1-15.59,10.41,105.5,105.5,0,0,1-17.17,7.11,76.76,76.76,0,0,1-9.09,2.24,84.8,84.8,0,0,1-9.26,1.09,92.79,92.79,0,0,1-18.47-.74,90,90,0,0,1-9.05-1.71,76,76,0,0,1-8.87-2.69,1.5,1.5,0,0,1,1-2.83l.07,0a73.37,73.37,0,0,0,8.56,2c2.91.51,5.84.94,8.78,1.2a88.37,88.37,0,0,0,17.6-.13,77.1,77.1,0,0,0,17-3.81,99.7,99.7,0,0,0,15.94-7.25A80.64,80.64,0,0,0,234,197a93.59,93.59,0,0,0,11.66-12.88c1.78-2.33,3.5-4.74,5.25-7.19s3.3-4.76,4.74-7.28A93.24,93.24,0,0,0,262.9,154a97,97,0,0,0,5.51-34,75.76,75.76,0,0,0-2.06-16.89l-.12-.51-.12-.41c-.07-.27-.17-.53-.26-.8a15.71,15.71,0,0,0-.68-1.57,18.3,18.3,0,0,0-1.95-3,26.31,26.31,0,0,0-5.68-5.17,52.37,52.37,0,0,0-15-6.78,37.47,37.47,0,0,0-16-1.15,30,30,0,0,0-14.2,6.67,42.43,42.43,0,0,0-5.79,5.92c-1.79,2.19-3.41,4.5-5.14,7a3.48,3.48,0,0,1-5.88-3.74Z"/><path class="cls-3" d="M142.51,209.16c2,3.27,3.74,6.47,5.46,9.78s3.3,6.67,4.74,10.13c.69,1.74,1.39,3.49,2,5.27.34.88.59,1.8.9,2.7s.57,1.82.84,2.74a49.52,49.52,0,0,1,2,11.62,27.29,27.29,0,0,1-2.26,12.42c-.52,1-1,2-1.59,2.92s-1.31,1.8-2,2.67-1.55,1.57-2.35,2.33-1.72,1.32-2.58,2a20.77,20.77,0,0,1-2.72,1.65l-1.39.76c-.47.24-.95.41-1.42.61-1,.38-1.9.8-2.86,1.14l-2.9.81c-.48.13-1,.28-1.45.39l-1.45.27-2.9.52c-1.93.26-3.86.36-5.77.55l-.22,0h-.13a30,30,0,0,1-15.42-4.94,24.53,24.53,0,0,1-9.6-12.79c-.19-.63-.4-1.26-.57-1.89l-.39-1.95-.19-1-.1-.91L98,255.15a19.91,19.91,0,0,1,.49-7.89,11.09,11.09,0,0,1,5.05-6.38c.6-.29,1.18-.62,1.78-.87s1.21-.43,1.84-.64a7.28,7.28,0,0,1,4.2.34,7.42,7.42,0,0,1,3.39,2.34,6.11,6.11,0,0,1,1.24,4,4.87,4.87,0,0,1-.09,1,6.8,6.8,0,0,1-.18,1,13.1,13.1,0,0,1-.63,1.86,12.28,12.28,0,0,1-.88,1.79,7.43,7.43,0,0,1-1.4,1.62,8.65,8.65,0,0,1-3.72,1.8,18.58,18.58,0,0,1-3.81.46c-.62,0-1.23,0-1.91,0a18,18,0,0,1-1.93-.32,27.15,27.15,0,0,1-3.59-1.05,30.21,30.21,0,0,1-6.59-3.38,29.84,29.84,0,0,1-2.9-2.27A30.31,30.31,0,0,1,85.75,246c-.84-.89-1.55-1.89-2.32-2.83s-1.34-2-2-3.08-1.13-2.14-1.64-3.23L78.5,233.5a38.46,38.46,0,0,0,8.08,11.69,29,29,0,0,0,2.67,2.3,28.36,28.36,0,0,0,2.9,2,31.92,31.92,0,0,0,6.35,2.88,25.13,25.13,0,0,0,3.36.83c.55.1,1.17.18,1.63.21s1.11,0,1.69-.07c2.29-.15,4.54-.63,6-1.91a6.4,6.4,0,0,0,1-1.08c.27-.4.53-.91.8-1.4a9,9,0,0,0,1-3,3.73,3.73,0,0,0-.63-2.79,4.23,4.23,0,0,0-2.5-1.6,5.41,5.41,0,0,0-2.9.08l-1.51.69c-.48.26-.92.57-1.38.84a8,8,0,0,0-3.25,5,16.21,16.21,0,0,0,.33,6.41l.38,1.72.19.87.25.78.49,1.55.65,1.5a18.76,18.76,0,0,0,8.41,9,24.19,24.19,0,0,0,12,2.64l-.35,0c1.69-.3,3.39-.56,5.06-.88l2.45-.6,1.22-.29c.4-.12.78-.27,1.16-.4l2.32-.79,2.17-1c.35-.17.73-.31,1.07-.5l1-.6a13.05,13.05,0,0,0,1.9-1.24,18.54,18.54,0,0,0,5.6-6.48,24.86,24.86,0,0,0,2.6-8.71,39.12,39.12,0,0,0-.17-10.06,43.92,43.92,0,0,0-1-5.13c-.23-.85-.44-1.7-.69-2.55l-.82-2.52a81.7,81.7,0,0,0-4.13-9.83,76.69,76.69,0,0,0-5.35-9.19l0-.05a2.42,2.42,0,1,1,4-2.74Z"/><path class="cls-2" d="M173.44,164c-2.87,3.46-5.59,6.85-8.15,10.28a101.92,101.92,0,0,0-6.88,10.41,54.07,54.07,0,0,0-2.63,5.3c-.39.89-.7,1.77-1,2.65s-.58,1.76-.78,2.63a21.3,21.3,0,0,0-.38,9.91l.1.77c0-.22,0-.07,0-.06l0,.16c0,.12.06.25.09.37a5.64,5.64,0,0,0,.26.75,4.22,4.22,0,0,0,.68,1.1,3.5,3.5,0,0,0,2,1.08,12.3,12.3,0,0,0,4.31.06,35.31,35.31,0,0,0,5.47-1.18c1-.29,1.9-.55,2.92-.9l1.55-.54.39-.13a3.45,3.45,0,0,1,.38-.12l.67-.21a56.53,56.53,0,0,0,5.62-2.27,48.42,48.42,0,0,0,10.92-7c-.83,4.64-3.5,8.94-6.79,12.46a30.94,30.94,0,0,1-2.63,2.53,29.19,29.19,0,0,1-2.92,2.28l-1.52,1-1.42.92c-.45.31-1,.61-1.53.91s-1,.62-1.6.88a34.42,34.42,0,0,1-7.12,2.81,21.55,21.55,0,0,1-8.83.6,16.16,16.16,0,0,1-5-1.63,14.84,14.84,0,0,1-4.35-3.5,16.73,16.73,0,0,1-2.71-4.55,18.08,18.08,0,0,1-.77-2.39c-.1-.41-.19-.82-.26-1.24,0-.21-.07-.44-.1-.66s0-.39-.08-.88l.1.77a30.61,30.61,0,0,1-.15-8.18,32,32,0,0,1,2-7.6,36.51,36.51,0,0,1,3.45-6.62,44,44,0,0,1,4.36-5.69,56.94,56.94,0,0,1,10.4-9.07A53.5,53.5,0,0,1,173.44,164Z"/><path class="cls-4" d="M203,100.22a6.08,6.08,0,0,1,.69,1.22c.16.34.24.63.37,1,.22.62.41,1.21.58,1.8.35,1.18.63,2.33.91,3.48.52,2.29,1,4.56,1.35,6.83.74,4.54,1.29,9.06,1.79,13.57l1.49,13.49c.23,2.23.47,4.51.75,6.7a47.4,47.4,0,0,0,1.25,6.47,41.48,41.48,0,0,0,2.15,6.24,39.62,39.62,0,0,0,3.09,5.85,35.25,35.25,0,0,0,9,9.68,28.49,28.49,0,0,0,12.14,5.24,25.32,25.32,0,0,0,13.18-1.3.15.15,0,0,1,.11.28h0a26.77,26.77,0,0,1-13.35,1.46,30.48,30.48,0,0,1-12.57-5c-7.57-5.14-12.9-13.18-15.76-21.87a49.72,49.72,0,0,1-1.72-6.68L207.18,142c-.82-4.41-1.82-8.79-2.91-13.12s-2.38-8.62-3.77-12.82c-.69-2.1-1.41-4.17-2.19-6.18-.4-1-.8-2-1.23-2.91-.21-.46-.44-.92-.65-1.33l-.32-.58a2.17,2.17,0,0,1-.13-.26.46.46,0,0,1,0-.08v0l.08.1a4.16,4.16,0,0,1,7-4.56Z"/></svg>